<svg width="334" height="354" viewBox="0 0 334 354" fill="none" xmlns="http://www.w3.org/2000/svg">
<rect width="334" height="354" fill="#1E1E1E"/>
<path d="M50.3 308.52C50.96 308.28 51.68 308.64 51.86 309.3C52.1 309.9 51.74 310.62 51.14 310.86C31.94 317.46 16.04 319.26 8 318.06C4.34 317.46 2.06 316.2 1.58 314.4C0.98 312.54 2.3 310.32 5.72 308.04C13.1 303.06 31.52 296.46 65.3 289.8C97.76 283.44 117.5 282.66 126.5 285C130.7 286.08 132.86 287.94 133.04 290.28C133.22 292.56 131.54 295.08 128.18 297.66C119.78 304.14 100.04 311.82 71.84 317.28C66.5 318.36 61.82 319.26 57.74 320.04C56.96 321.72 56.18 323.4 55.4 325.02C61.1 325.38 66.8 325.98 70.82 327.18C74.96 328.44 76.94 330.48 77.3 332.94C77.6 334.86 76.94 336.96 75.56 339C74.24 340.86 72.38 342.78 70.16 344.52C63.44 349.74 53.66 353.46 49.04 350.82C44.84 348.48 47.54 338.28 52.04 327.3C49.52 327.18 47 327.12 44.78 327.06C38.18 326.88 33.26 326.76 32.96 325.08C32.66 323.58 38.78 321.6 56.24 317.94C59.48 311.1 62.84 304.8 65.06 300.78C64.76 301.02 64.52 301.32 64.22 301.68C63.74 302.16 62.96 302.22 62.48 301.74C62 301.26 61.94 300.48 62.36 300C65.42 296.7 67.34 295.86 68.3 295.74C68.48 295.68 68.66 295.62 68.84 295.68C68.9 295.68 68.9 295.68 68.9 295.68C69.02 295.74 69.14 295.74 69.26 295.8C69.8 296.16 70.04 296.88 69.68 297.48C69.68 297.54 64.34 306.72 59.06 317.34C62.72 316.56 66.8 315.78 71.42 314.88C99.2 309.48 118.52 301.98 126.68 295.74C129.38 293.7 130.7 291.9 130.58 290.52C130.46 289.26 128.96 288.18 125.9 287.34C117.2 285.12 97.82 285.9 65.78 292.26C32.36 298.8 14.24 305.28 7.1 310.08C4.7 311.7 3.68 312.9 3.92 313.74C4.16 314.58 5.72 315.18 8.36 315.6C16.1 316.8 31.52 315 50.3 308.52ZM54.98 320.58C40.58 323.4 35.36 324.48 35.36 324.66C35.42 324.9 39.38 324.48 44.84 324.6C47.36 324.72 50.18 324.78 53.06 324.9C53.66 323.46 54.32 322.02 54.98 320.58ZM70.1 329.52C66.14 328.32 60.2 327.72 54.32 327.42C49.88 337.62 47 346.86 50.24 348.66C54.02 350.82 62.6 347.34 68.66 342.6C70.64 341.04 72.38 339.3 73.52 337.62C74.54 336.06 75.08 334.56 74.9 333.36C74.66 331.8 73.22 330.48 70.1 329.52ZM93.6847 316.02C94.2847 316.02 94.7647 316.38 94.8847 316.98C95.0647 317.64 94.6447 318.3 93.9847 318.48C92.0647 318.9 90.3247 322.5 90.3247 322.5C90.0847 323.16 89.3047 323.4 88.7047 323.1C88.1047 322.8 87.8647 322.08 88.1647 321.48C88.1647 321.42 90.3847 316.74 93.4447 316.08C93.5047 316.02 93.6247 316.02 93.6847 316.02ZM87.6847 324.9C87.9247 324.9 88.2247 325.02 88.4647 325.2C88.9447 325.62 89.0047 326.4 88.5847 326.94C87.1447 328.68 86.1847 330.18 85.7647 331.38C85.5847 331.92 85.5247 332.34 85.5847 332.7C85.6447 332.82 85.7047 332.94 85.8847 333.06C86.1847 333.18 86.5447 333.24 87.0247 333.24C88.5247 333.24 90.8647 332.52 93.2047 331.62C96.8047 330.24 100.345 328.44 101.425 327.66C101.965 327.3 102.745 327.42 103.165 327.96C103.525 328.5 103.405 329.28 102.865 329.7C101.665 330.54 97.8247 332.46 94.1047 333.9C91.4647 334.92 88.8247 335.7 87.0247 335.7C86.1847 335.7 85.4647 335.52 84.8647 335.28C83.9647 334.8 83.4247 334.14 83.1847 333.24C83.0047 332.46 83.1247 331.56 83.4247 330.6C83.9647 329.1 85.0447 327.3 86.7247 325.38C86.9647 325.08 87.3247 324.9 87.6847 324.9ZM110.505 327.18C110.085 327.72 109.305 327.9 108.765 327.54C108.225 327.12 108.045 326.34 108.465 325.8C109.725 323.88 110.145 322.74 110.025 322.2C110.025 322.08 109.665 322.14 109.185 322.2C108.225 322.38 106.965 322.98 105.885 323.76C104.205 325.02 102.885 326.76 103.485 328.26C103.965 329.52 105.165 331.08 106.305 332.64L106.605 333C113.865 330 120.585 327.6 120.645 327.6C121.305 327.36 122.025 327.66 122.205 328.32C122.445 328.98 122.145 329.64 121.485 329.88C121.425 329.94 114.765 332.28 108.045 334.98C109.185 336.66 110.085 338.34 110.145 339.9C110.205 343.08 107.625 345.48 97.5453 345.48C80.0253 345.54 92.2053 339.18 104.685 333.84C103.425 332.22 101.805 330.72 101.205 329.16C100.125 326.4 101.985 323.64 104.445 321.78C105.825 320.76 107.445 320.04 108.765 319.8C110.625 319.44 112.065 319.98 112.425 321.66C112.665 322.86 112.185 324.66 110.505 327.18ZM107.685 339.96C107.625 338.88 106.785 337.44 105.765 335.94C96.8853 339.66 85.9053 343.8 97.3053 343.02C105.345 342.54 107.745 341.7 107.685 339.96ZM129.913 327.24C130.033 327.36 130.093 327.54 130.093 327.72C131.173 326.58 131.773 325.68 131.773 325.68C132.133 325.14 132.913 325.02 133.453 325.38C133.873 325.62 134.053 326.1 133.993 326.58C133.333 331.62 133.093 333.54 133.393 333.6C133.873 333.66 135.313 332.82 137.533 331.5C139.393 330.42 141.853 329.04 144.853 327.54C145.453 327.24 146.233 327.54 146.533 328.14C146.833 328.74 146.533 329.46 145.933 329.76C142.993 331.2 140.653 332.58 138.793 333.66C136.093 335.22 134.353 336.24 133.033 336C131.233 335.76 130.813 334.14 131.113 330.3C128.773 332.7 125.173 335.52 121.093 335.94C118.813 336.18 117.733 335.22 117.613 333.66C117.493 332.58 117.973 331.2 118.813 329.94C119.593 328.8 120.673 327.6 121.933 326.7C124.573 324.84 127.753 324.24 129.913 327.24ZM128.773 329.16C128.413 329.16 128.113 328.98 127.933 328.68C126.793 327.12 124.933 327.6 123.373 328.74C122.413 329.4 121.513 330.36 120.853 331.32C120.313 332.16 120.013 332.88 120.073 333.42C120.073 333.48 120.313 333.54 120.853 333.48C123.973 333.18 126.793 331.14 128.773 329.16ZM148.05 338.16C148.65 337.92 149.37 338.22 149.61 338.88C149.91 339.48 149.55 340.2 148.95 340.44C146.97 341.22 145.47 340.98 144.45 340.02C142.65 338.34 142.71 334.26 143.79 329.16C144.81 324.36 146.73 318.54 148.95 313.02C153.45 301.8 159.45 291.6 162.15 292.32C162.51 292.44 162.87 292.62 163.23 292.92C163.89 293.58 164.49 294.72 164.67 296.4C164.79 297.9 164.67 299.82 164.01 302.28C162.39 308.04 157.83 316.74 147.33 328.5C146.97 328.98 146.61 329.28 146.19 329.64C145.29 333.96 145.11 337.2 146.13 338.22C146.49 338.52 147.09 338.52 148.05 338.16ZM151.23 313.92C149.79 317.52 148.47 321.18 147.45 324.6C156.33 314.34 160.23 306.72 161.61 301.62C162.21 299.52 162.33 297.84 162.21 296.64C162.09 295.62 161.85 295.02 161.55 294.72C161.49 294.72 161.49 294.66 161.49 294.66C160.11 294.3 155.31 303.72 151.23 313.92ZM203.473 334.56C203.653 334.44 203.893 334.38 204.133 334.38C204.493 334.38 204.913 334.56 205.153 334.92C205.273 335.16 205.393 335.34 205.393 335.58C205.393 335.94 205.153 336.3 204.793 336.54C198.793 340.02 195.913 342.54 195.193 344.22C195.133 344.4 195.133 344.52 195.133 344.64C195.133 345.3 195.733 345.72 196.813 346.02C197.833 346.26 199.093 346.38 200.593 346.38C201.913 346.38 203.353 346.26 204.853 346.08C212.173 345.24 220.633 342.36 221.293 338.88C221.353 338.82 221.353 338.76 221.353 338.64C221.353 335.7 210.973 333 200.053 330.18C189.673 327.48 178.813 324.66 175.032 320.7C174.012 319.62 173.472 318.42 173.472 317.22C173.472 315.84 174.192 314.4 175.872 312.84C181.753 307.26 195.373 300.3 209.533 295.2C218.473 292.02 227.593 289.5 235.273 288.54C237.433 288.3 239.533 288.12 241.453 288.12C246.492 288.12 250.453 289.14 252.673 291.48C253.333 292.2 253.813 292.98 254.113 293.88C254.233 294.18 254.293 294.48 254.293 294.78C254.293 302.94 222.433 323.58 219.253 325.68L219.013 325.8C218.833 325.92 218.593 325.98 218.353 325.98C217.933 325.98 217.573 325.8 217.333 325.5C217.153 325.32 217.093 325.08 217.093 324.84C217.093 324.48 217.273 324.12 217.573 323.94L217.813 323.76C220.873 321.78 251.893 301.62 251.893 295.14C251.893 294.96 251.893 294.72 251.833 294.54C251.593 293.94 251.293 293.4 250.873 292.98C249.133 291.18 245.893 290.4 241.633 290.4C239.833 290.4 237.793 290.58 235.633 290.82C228.193 291.72 219.193 294.18 210.493 297.36C196.573 302.34 183.253 309.12 177.613 314.46C176.532 315.48 175.992 316.44 175.992 317.34C175.992 318 176.292 318.6 176.832 319.2C180.133 322.68 190.633 325.38 200.653 327.96C212.473 331.08 223.753 333.96 223.753 338.76C223.753 338.94 223.753 339.18 223.693 339.36C222.853 343.86 213.313 347.4 205.213 348.36C203.653 348.54 202.093 348.66 200.653 348.66C198.973 348.66 197.413 348.54 196.213 348.18C193.933 347.64 192.553 346.56 192.553 344.88C192.553 344.4 192.673 343.92 192.913 343.32C193.813 341.22 196.933 338.34 203.473 334.56ZM244.17 327.24C244.29 327.36 244.35 327.54 244.35 327.72C245.43 326.58 246.03 325.68 246.03 325.68C246.39 325.14 247.17 325.02 247.71 325.38C248.13 325.62 248.31 326.1 248.25 326.58C247.59 331.62 247.35 333.54 247.65 333.6C248.13 333.66 249.57 332.82 251.79 331.5C253.65 330.42 256.11 329.04 259.11 327.54C259.71 327.24 260.49 327.54 260.79 328.14C261.09 328.74 260.79 329.46 260.19 329.76C257.25 331.2 254.91 332.58 253.05 333.66C250.35 335.22 248.61 336.24 247.29 336C245.49 335.76 245.07 334.14 245.37 330.3C243.03 332.7 239.43 335.52 235.35 335.94C233.07 336.18 231.99 335.22 231.87 333.66C231.75 332.58 232.23 331.2 233.07 329.94C233.85 328.8 234.93 327.6 236.19 326.7C238.83 324.84 242.01 324.24 244.17 327.24ZM243.03 329.16C242.67 329.16 242.37 328.98 242.19 328.68C241.05 327.12 239.19 327.6 237.63 328.74C236.67 329.4 235.77 330.36 235.11 331.32C234.57 332.16 234.27 332.88 234.33 333.42C234.33 333.48 234.57 333.54 235.11 333.48C238.23 333.18 241.05 331.14 243.03 329.16ZM261.648 327.54C264.408 327.06 268.788 325.86 267.588 323.46C267.408 323.04 267.048 322.92 266.628 322.98C265.908 323.1 265.068 323.58 264.228 324.36C263.328 325.14 262.488 326.16 261.768 327.36C261.708 327.42 261.708 327.48 261.648 327.54ZM269.808 322.38C272.568 327.96 263.448 329.82 260.568 330.24C260.268 331.56 260.448 332.82 261.228 333.72C263.268 334.98 266.628 334.5 270.468 333.18C274.248 331.86 278.508 329.7 282.408 327.54C282.588 327 282.888 326.46 283.188 325.92C285.108 322.26 288.408 319.02 291.108 319.62C293.148 320.04 293.808 321 293.508 322.32C293.088 324.42 288.408 327 284.628 329.1L284.448 329.22L284.388 329.28C284.268 329.46 284.208 329.64 284.148 329.82C283.908 330.66 283.788 331.44 283.848 332.1C283.908 332.7 284.088 333.12 284.628 333.18C286.788 333.6 290.148 333.06 293.628 332.1C297.888 330.9 302.328 329.1 305.328 327.36C305.928 327.06 306.708 327.24 307.008 327.84C307.368 328.44 307.128 329.16 306.588 329.52C303.348 331.32 298.668 333.24 294.288 334.44C290.448 335.52 286.728 336.06 284.208 335.64C282.348 335.28 281.508 334.02 281.388 332.22C281.388 331.8 281.388 331.32 281.448 330.84C278.088 332.64 274.548 334.38 271.248 335.52C266.688 337.08 262.548 337.56 259.788 335.7C259.728 335.64 259.668 335.58 259.608 335.52C257.088 333 257.808 329.22 259.668 326.1C260.508 324.72 261.528 323.46 262.608 322.5C263.808 321.48 265.068 320.76 266.208 320.58C267.708 320.28 269.028 320.82 269.808 322.38ZM286.428 325.26C288.828 323.88 290.928 322.5 291.108 321.78C291.168 321.6 290.928 322.08 290.628 322.02C289.428 321.78 287.808 323.28 286.428 325.26ZM310.943 325.62C311.543 325.68 311.963 326.1 311.903 326.7C311.843 327.3 311.303 327.84 310.763 327.78C306.203 327.72 302.183 334.56 306.803 334.08C307.283 334.02 307.883 333.36 308.663 332.52C310.103 330.96 311.903 328.5 313.823 325.62C314.783 321.96 315.983 318.12 317.183 314.28C320.963 302.64 325.643 291.24 328.523 288.12C329.663 286.86 330.743 286.56 331.703 287.46C332.003 287.7 332.243 288.06 332.363 288.54C333.383 291.78 329.723 301.14 324.863 310.68C322.043 316.14 318.803 321.78 315.803 326.34C314.003 333.18 312.863 339 313.163 341.46C313.223 341.76 312.923 342 313.043 342C313.643 341.88 314.183 342.24 314.243 342.78C314.303 343.38 313.883 343.98 313.283 344.1C311.963 344.4 311.243 343.62 311.003 341.94C310.763 339.9 311.363 336 312.443 331.14C311.663 332.22 310.883 333.12 310.163 333.9C309.143 334.98 308.183 335.76 307.403 336.06C305.543 336.84 304.103 336.6 303.263 335.82C302.603 335.28 302.363 334.44 302.363 333.48C302.363 329.4 305.783 325.38 310.943 325.62ZM317.963 318.96C319.643 316.02 321.383 312.9 322.943 309.84C327.623 300.78 331.163 292.02 330.263 289.38C330.263 289.26 330.203 289.14 330.143 289.14C330.023 289.02 330.203 289.32 330.023 289.5C327.383 292.32 322.943 303.42 319.283 314.76C318.803 316.14 318.383 317.58 317.963 318.96Z" fill="#242944"/>
<path d="M226.863 185.75L224.038 186.759L224.044 186.776L224.05 186.792L226.863 185.75ZM220.125 179.891L218.783 182.574L218.815 182.59L218.848 182.605L220.125 179.891ZM212.391 176.844L211.442 179.69L211.452 179.693L212.391 176.844ZM201.551 172.625L200.296 175.35L200.308 175.356L200.321 175.361L201.551 172.625ZM192.234 167.059L190.381 169.418L190.391 169.426L190.402 169.434L192.234 167.059ZM185.73 159.559L183.106 161.013L183.111 161.02L183.115 161.028L185.73 159.559ZM185.789 139.578L188.407 141.044L188.411 141.037L188.415 141.029L185.789 139.578ZM192.645 132.02L194.376 134.47L194.382 134.465L192.645 132.02ZM203.074 127.215L203.868 130.108L203.882 130.104L203.895 130.1L203.074 127.215ZM232.664 128.797L231.413 131.523L231.426 131.53L231.439 131.536L232.664 128.797ZM243.914 137.996L241.429 139.677L241.439 139.691L241.448 139.705L243.914 137.996ZM248.016 152V155H251.016V152H248.016ZM227.566 152H224.566V155H227.566V152ZM226.219 146.316L223.561 147.708L223.574 147.733L223.587 147.757L226.219 146.316ZM205.184 145.379L207.645 147.094L207.657 147.077L207.668 147.06L205.184 145.379ZM204.891 153.172L202.394 154.836L202.43 154.89L202.468 154.942L204.891 153.172ZM207.996 156.043L206.315 158.528L206.332 158.539L206.349 158.55L207.996 156.043ZM212.918 158.621L211.736 161.379L211.746 161.383L211.756 161.387L212.918 158.621ZM219.48 161.023L218.559 163.879L218.569 163.882L219.48 161.023ZM231.551 165.887L230.185 168.558L230.203 168.567L230.221 168.576L231.551 165.887ZM240.516 171.922L238.466 174.113L238.484 174.13L238.503 174.146L240.516 171.922ZM246.082 179.539L243.334 180.743L243.341 180.759L243.348 180.775L246.082 179.539ZM239.402 206.961L241.175 209.381L241.186 209.373L241.197 209.365L239.402 206.961ZM203.543 211.531L202.765 214.429L202.781 214.433L202.797 214.437L203.543 211.531ZM192.059 206.375L190.369 208.854L190.378 208.86L190.388 208.867L192.059 206.375ZM183.797 197.41L181.172 198.862L181.181 198.879L181.19 198.896L183.797 197.41ZM180.75 184.344V181.344H177.75V184.344H180.75ZM201.375 184.344H204.375V181.344H201.375V184.344ZM205.301 194.832L203.401 197.154L203.422 197.171L203.444 197.189L205.301 194.832ZM210.047 197.059L209.319 199.969L209.348 199.976L209.377 199.983L210.047 197.059ZM222.82 196.59L224.082 199.312L224.109 199.299L224.136 199.286L222.82 196.59ZM226.336 193.543L228.916 195.075L228.926 195.057L228.936 195.04L226.336 193.543ZM230.449 189.324C230.449 187.703 230.211 186.151 229.677 184.708L224.05 186.792C224.297 187.459 224.449 188.289 224.449 189.324H230.449ZM229.689 184.741C229.096 183.081 228.039 181.662 226.688 180.461L222.702 184.945C223.461 185.62 223.85 186.232 224.038 186.759L229.689 184.741ZM226.688 180.461C225.334 179.257 223.526 178.176 221.402 177.176L218.848 182.605C220.708 183.481 221.947 184.274 222.702 184.945L226.688 180.461ZM221.467 177.207C219.333 176.141 216.605 175.073 213.329 173.994L211.452 179.693C214.583 180.724 217.01 181.687 218.783 182.574L221.467 177.207ZM213.339 173.998C209.681 172.778 206.162 171.408 202.781 169.889L200.321 175.361C203.893 176.967 207.6 178.409 211.442 179.69L213.339 173.998ZM202.806 169.9C199.513 168.383 196.604 166.641 194.067 164.683L190.402 169.434C193.333 171.695 196.636 173.664 200.296 175.35L202.806 169.9ZM194.088 164.7C191.644 162.779 189.743 160.576 188.346 158.09L183.115 161.028C184.921 164.244 187.356 167.041 190.381 169.418L194.088 164.7ZM188.355 158.105C187.036 155.725 186.328 152.881 186.328 149.48H180.328C180.328 153.736 181.222 157.611 183.106 161.013L188.355 158.105ZM186.328 149.48C186.328 146.273 187.04 143.485 188.407 141.044L183.172 138.112C181.257 141.531 180.328 145.345 180.328 149.48H186.328ZM188.415 141.029C189.824 138.479 191.794 136.294 194.376 134.47L190.913 129.57C187.636 131.886 185.035 134.739 183.163 138.127L188.415 141.029ZM194.382 134.465C197.029 132.584 200.177 131.121 203.868 130.108L202.28 124.322C198.002 125.496 194.197 127.236 190.907 129.574L194.382 134.465ZM203.895 130.1C207.578 129.053 211.653 128.516 216.141 128.516V122.516C211.175 122.516 206.54 123.111 202.254 124.329L203.895 130.1ZM216.141 128.516C222.04 128.516 227.108 129.547 231.413 131.523L233.916 126.07C228.689 123.671 222.741 122.516 216.141 122.516V128.516ZM231.439 131.536C235.783 133.478 239.076 136.199 241.429 139.677L246.399 136.315C243.361 131.824 239.154 128.413 233.889 126.058L231.439 131.536ZM241.448 139.705C243.793 143.088 245.016 147.142 245.016 152H251.016C251.016 146.077 249.504 140.795 246.38 136.287L241.448 139.705ZM248.016 149H227.566V155H248.016V149ZM230.566 152C230.566 149.423 230.024 147.02 228.85 144.875L223.587 147.757C224.21 148.894 224.566 150.28 224.566 152H230.566ZM228.876 144.924C227.716 142.709 225.952 141.001 223.705 139.802L220.881 145.096C222.149 145.773 223.003 146.643 223.561 147.708L228.876 144.924ZM223.705 139.802C221.392 138.569 218.663 138.043 215.672 138.043V144.043C217.993 144.043 219.678 144.455 220.881 145.096L223.705 139.802ZM215.672 138.043C212.809 138.043 210.198 138.474 207.95 139.473L210.386 144.956C211.654 144.393 213.378 144.043 215.672 144.043V138.043ZM207.95 139.473C205.782 140.437 203.97 141.819 202.699 143.698L207.668 147.06C208.194 146.282 209.038 145.555 210.386 144.956L207.95 139.473ZM202.722 143.664C201.475 145.453 200.836 147.477 200.836 149.656H206.836C206.836 148.711 207.095 147.883 207.645 147.094L202.722 143.664ZM200.836 149.656C200.836 151.527 201.357 153.28 202.394 154.836L207.387 151.508C207.018 150.955 206.836 150.364 206.836 149.656H200.836ZM202.468 154.942C203.462 156.302 204.776 157.486 206.315 158.528L209.677 153.558C208.56 152.803 207.804 152.073 207.313 151.402L202.468 154.942ZM206.349 158.55C207.897 159.568 209.701 160.506 211.736 161.379L214.1 155.864C212.306 155.095 210.83 154.315 209.644 153.536L206.349 158.55ZM211.756 161.387C213.802 162.246 216.072 163.076 218.559 163.879L220.401 158.168C218.045 157.408 215.94 156.637 214.08 155.855L211.756 161.387ZM218.569 163.882C222.974 165.287 226.842 166.849 230.185 168.558L232.916 163.215C229.229 161.331 225.049 159.651 220.392 158.165L218.569 163.882ZM230.221 168.576C233.562 170.228 236.296 172.082 238.466 174.113L242.565 169.731C239.892 167.23 236.648 165.061 232.881 163.198L230.221 168.576ZM238.503 174.146C240.671 176.108 242.266 178.305 243.334 180.743L248.83 178.335C247.398 175.07 245.283 172.189 242.528 169.697L238.503 174.146ZM243.348 180.775C244.438 183.184 245.016 185.976 245.016 189.207H251.016C251.016 185.25 250.305 181.597 248.816 178.303L243.348 180.775ZM245.016 189.207C245.016 192.641 244.352 195.568 243.106 198.061L248.472 200.744C250.195 197.299 251.016 193.429 251.016 189.207H245.016ZM243.106 198.061C241.84 200.593 240.023 202.754 237.608 204.557L241.197 209.365C244.329 207.027 246.77 204.149 248.472 200.744L243.106 198.061ZM237.63 204.541C235.197 206.322 232.223 207.722 228.652 208.696L230.231 214.484C234.394 213.349 238.061 211.662 241.175 209.381L237.63 204.541ZM228.652 208.696C225.085 209.668 221.04 210.172 216.492 210.172V216.172C221.476 216.172 226.063 215.621 230.231 214.484L228.652 208.696ZM216.492 210.172C212.37 210.172 208.305 209.657 204.289 208.626L202.797 214.437C207.297 215.593 211.864 216.172 216.492 216.172V210.172ZM204.321 208.634C200.402 207.582 196.879 205.995 193.729 203.883L190.388 208.867C194.114 211.365 198.246 213.215 202.765 214.429L204.321 208.634ZM193.749 203.896C190.69 201.811 188.249 199.163 186.403 195.925L181.19 198.896C183.486 202.923 186.552 206.252 190.369 208.854L193.749 203.896ZM186.422 195.958C184.682 192.812 183.75 188.977 183.75 184.344H177.75C177.75 189.789 178.85 194.665 181.172 198.862L186.422 195.958ZM180.75 187.344H201.375V181.344H180.75V187.344ZM198.375 184.344C198.375 187.09 198.737 189.59 199.573 191.753L205.169 189.591C204.677 188.316 204.375 186.598 204.375 184.344H198.375ZM199.573 191.753C200.404 193.903 201.669 195.736 203.401 197.154L207.2 192.51C206.355 191.818 205.667 190.878 205.169 189.591L199.573 191.753ZM203.444 197.189C205.12 198.509 207.105 199.416 209.319 199.969L210.774 194.148C209.238 193.764 208.06 193.186 207.157 192.476L203.444 197.189ZM209.377 199.983C211.52 200.474 213.9 200.703 216.492 200.703V194.703C214.241 194.703 212.324 194.503 210.717 194.134L209.377 199.983ZM216.492 200.703C219.353 200.703 221.941 200.304 224.082 199.312L221.559 193.868C220.496 194.36 218.866 194.703 216.492 194.703V200.703ZM224.136 199.286C226.144 198.307 227.813 196.931 228.916 195.075L223.756 192.011C223.374 192.655 222.7 193.311 221.505 193.894L224.136 199.286ZM228.936 195.04C229.947 193.284 230.449 191.36 230.449 189.324H224.449C224.449 190.336 224.21 191.224 223.736 192.046L228.936 195.04Z" fill="#242944"/>
<path d="M147.309 122.73V125.73H148.496L149.361 124.918L147.309 122.73ZM125.336 122.73L122.336 122.757L122.362 125.73H125.336V122.73ZM125.219 109.254V106.254H122.193L122.219 109.28L125.219 109.254ZM150.707 108.199L151.741 111.015L151.767 111.006L151.792 110.996L150.707 108.199ZM154.867 104.977L152.339 103.361L152.323 103.387L152.307 103.412L154.867 104.977ZM154.867 93.8437L152.301 95.3971L154.867 93.8437ZM150.59 90.6211L149.555 93.4371L149.59 93.4497L149.624 93.4614L150.59 90.6211ZM133.07 89.5664V86.5664H130.07V89.5664H133.07ZM133.07 159V162H136.07V159H133.07ZM112.504 159H109.504V162H112.504V159ZM112.504 73.6875V70.6875H109.504V73.6875H112.504ZM157.27 75.1523L156.581 78.0722L156.594 78.0753L156.607 78.0783L157.27 75.1523ZM167.816 79.4883L166.137 81.974L166.145 81.9792L166.152 81.9844L167.816 79.4883ZM174.496 86.8711L171.827 88.2407L171.831 88.2479L171.834 88.2551L174.496 86.8711ZM167.113 114.469L168.55 117.102L168.56 117.097L167.113 114.469ZM152.992 117.398L152.953 114.399L151.789 114.414L150.94 115.211L152.992 117.398ZM120.355 159L117.614 157.782L115.739 162H120.355V159ZM127.387 143.18V140.18H125.437L124.645 141.961L127.387 143.18ZM153.227 141.891L154.593 144.561L154.605 144.555L154.616 144.549L153.227 141.891ZM156.918 138.375L154.263 136.978L154.256 136.991L154.249 137.005L156.918 138.375ZM156.977 127.77L154.23 128.975L154.242 129.003L154.255 129.031L156.977 127.77ZM153.578 124.078L152.083 126.679L152.107 126.693L152.132 126.707L153.578 124.078ZM130.023 122.73L127.024 122.704L126.997 125.73H130.023V122.73ZM130.141 109.254V106.254H127.167L127.141 109.228L130.141 109.254ZM150.824 109.254L153.064 107.258L152.169 106.254H150.824V109.254ZM155.629 114.645L153.389 116.641L154.334 117.7L155.752 117.642L155.629 114.645ZM169.164 117.047L167.712 119.672L167.719 119.676L167.725 119.679L169.164 117.047ZM174.906 147.75L172.386 146.122L172.38 146.132L172.374 146.141L174.906 147.75ZM147.309 119.73H125.336V125.73H147.309V119.73ZM128.336 122.704L128.219 109.228L122.219 109.28L122.336 122.757L128.336 122.704ZM125.219 112.254H143.031V106.254H125.219V112.254ZM143.031 112.254C146.409 112.254 149.362 111.889 151.741 111.015L149.673 105.383C148.224 105.915 146.06 106.254 143.031 106.254V112.254ZM151.792 110.996C154.166 110.076 156.147 108.635 157.427 106.541L152.307 103.412C151.868 104.131 151.076 104.838 149.622 105.402L151.792 110.996ZM157.395 106.592C158.674 104.59 159.215 102.235 159.215 99.7031H153.215C153.215 101.39 152.857 102.55 152.339 103.361L157.395 106.592ZM159.215 99.7031C159.215 96.9406 158.707 94.3933 157.434 92.2903L152.301 95.3971C152.825 96.2629 153.215 97.6218 153.215 99.7031H159.215ZM157.434 92.2903C156.103 90.0925 154.045 88.6271 151.556 87.7808L149.624 93.4614C151.041 93.9431 151.834 94.6263 152.301 95.3971L157.434 92.2903ZM151.624 87.8051C149.258 86.9358 146.391 86.5664 143.148 86.5664V92.5664C146 92.5664 148.094 92.9001 149.555 93.4371L151.624 87.8051ZM143.148 86.5664H133.07V92.5664H143.148V86.5664ZM130.07 89.5664V159H136.07V89.5664H130.07ZM133.07 156H112.504V162H133.07V156ZM115.504 159V73.6875H109.504V159H115.504ZM112.504 76.6875H143.148V70.6875H112.504V76.6875ZM143.148 76.6875C148.243 76.6875 152.712 77.1598 156.581 78.0722L157.958 72.2324C153.546 71.1918 148.601 70.6875 143.148 70.6875V76.6875ZM156.607 78.0783C160.461 78.9508 163.614 80.2694 166.137 81.974L169.496 77.0025C166.238 74.8009 162.359 73.2288 157.932 72.2264L156.607 78.0783ZM166.152 81.9844C168.681 83.6701 170.55 85.7523 171.827 88.2407L177.165 85.5014C175.395 82.0523 172.811 79.2127 169.481 76.9921L166.152 81.9844ZM171.834 88.2551C173.094 90.6776 173.781 93.641 173.781 97.2422H179.781C179.781 92.8746 178.945 88.9239 177.158 85.487L171.834 88.2551ZM173.781 97.2422C173.781 100.276 173.137 103.087 171.858 105.713L177.252 108.341C178.941 104.874 179.781 101.162 179.781 97.2422H173.781ZM171.858 105.713C170.689 108.113 168.696 110.173 165.666 111.841L168.56 117.097C172.484 114.937 175.452 112.035 177.252 108.341L171.858 105.713ZM165.677 111.835C162.836 113.385 158.676 114.324 152.953 114.399L153.031 120.398C159.262 120.317 164.516 119.303 168.55 117.102L165.677 111.835ZM150.94 115.211L145.256 120.543L149.361 124.918L155.045 119.586L150.94 115.211ZM146.488 156H120.355V162H146.488V156ZM123.097 160.218L130.128 144.398L124.645 141.961L117.614 157.782L123.097 160.218ZM127.387 146.18H146.488V140.18H127.387V146.18ZM146.488 146.18C149.562 146.18 152.334 145.717 154.593 144.561L151.86 139.22C150.76 139.783 149.04 140.18 146.488 140.18V146.18ZM154.616 144.549C156.775 143.421 158.51 141.842 159.587 139.745L154.249 137.005C153.841 137.799 153.115 138.564 151.837 139.232L154.616 144.549ZM159.573 139.772C160.597 137.827 161.09 135.701 161.09 133.453H155.09C155.09 134.799 154.802 135.955 154.263 136.978L159.573 139.772ZM161.09 133.453C161.09 130.932 160.662 128.588 159.698 126.508L154.255 129.031C154.775 130.154 155.09 131.6 155.09 133.453H161.09ZM159.723 126.564C158.749 124.345 157.153 122.62 155.024 121.449L152.132 126.707C153.129 127.255 153.797 127.991 154.23 128.975L159.723 126.564ZM155.074 121.477C152.896 120.225 150.228 119.73 147.309 119.73V125.73C149.623 125.73 151.135 126.134 152.083 126.679L155.074 121.477ZM147.309 119.73H130.023V125.73H147.309V119.73ZM133.023 122.757L133.141 109.28L127.141 109.228L127.024 122.704L133.023 122.757ZM130.141 112.254H150.824V106.254H130.141V112.254ZM148.585 111.25L153.389 116.641L157.868 112.648L153.064 107.258L148.585 111.25ZM155.752 117.642C161.163 117.42 165.057 118.204 167.712 119.672L170.616 114.421C166.63 112.218 161.501 111.401 155.506 111.647L155.752 117.642ZM167.725 119.679C170.618 121.26 172.532 123.251 173.667 125.612L179.075 123.013C177.319 119.359 174.429 116.505 170.603 114.414L167.725 119.679ZM173.667 125.612C174.921 128.221 175.539 130.923 175.539 133.746H181.539C181.539 130.007 180.712 126.419 179.075 123.013L173.667 125.612ZM175.539 133.746C175.539 138.899 174.424 142.966 172.386 146.122L177.426 149.378C180.232 145.034 181.539 139.765 181.539 133.746H175.539ZM172.374 146.141C170.382 149.276 167.353 151.716 163.085 153.396L165.282 158.979C170.545 156.908 174.665 153.724 177.438 149.359L172.374 146.141ZM163.085 153.396C158.773 155.092 153.274 156 146.488 156V162C153.765 162 160.062 161.033 165.282 158.979L163.085 153.396Z" fill="#242944"/>
<path d="M312.758 105.532L279.321 230.321L154.532 263.758L63.1806 172.406L96.6176 47.6176L221.406 14.1806L312.758 105.532Z" stroke="#242944" stroke-width="4"/>
<path d="M51.7115 160.937L85.1484 36.1485L209.937 2.71147L301.289 94.063L267.852 218.852L143.063 252.289L51.7115 160.937Z" stroke="#242944" stroke-width="4"/>
</svg>
